<svg width="30" height="30" fill="none" xmlns="http://www.w3.org/2000/svg"><path d="M25.358.9H4.116A3.918 3.918 0 00.198 4.817v21.241a3.918 3.918 0 003.918 3.919h10.476l.018-10.391h-2.7a.637.637 0 01-.636-.635l-.013-3.35a.637.637 0 01.637-.639h2.694v-3.236c0-3.756 2.294-5.801 5.645-5.801h2.749c.352 0 .637.285.637.637v2.824a.637.637 0 01-.637.637l-1.687.001c-1.822 0-2.175.866-2.175 2.137v2.801h4.004c.381 0 .677.334.632.713l-.397 3.349a.637.637 0 01-.632.562h-3.59l-.017 10.391h6.234a3.918 3.918 0 003.918-3.918V4.818A3.919 3.919 0 0025.358.899z" fill="#475993"/></svg>