<svg width="30" height="29" fill="none" xmlns="http://www.w3.org/2000/svg"><path d="M2.296 2.12C.056 4.45.514 6.923.514 14.436c0 6.238-1.089 12.492 4.608 13.965 1.78.457 17.541.457 19.318-.002 2.372-.613 4.302-2.536 4.566-5.891.036-.468.036-15.668-.002-16.146-.28-3.573-2.48-5.633-5.378-6.05-.664-.096-.798-.125-4.206-.13C7.331.185 4.681-.353 2.296 2.12z" fill="url(#paint0_linear)"/><path d="M14.771 3.91c-4.314 0-8.412-.384-9.977 3.633-.646 1.659-.552 3.814-.552 6.898 0 2.707-.087 5.252.552 6.897 1.562 4.02 5.692 3.634 9.975 3.634 4.132 0 8.392.43 9.976-3.634.648-1.675.553-3.797.553-6.897 0-4.114.227-6.77-1.768-8.764-2.02-2.02-4.753-1.767-8.763-1.767h.005zm-.943 1.898c9-.014 10.146-1.015 9.514 12.885-.225 4.916-3.968 4.377-8.57 4.377-8.389 0-8.63-.24-8.63-8.633 0-8.491.665-8.624 7.686-8.631v.002zm6.564 1.748a1.263 1.263 0 100 2.527 1.263 1.263 0 000-2.527zm-5.62 1.477a5.408 5.408 0 000 10.815 5.406 5.406 0 005.405-5.407 5.407 5.407 0 00-5.405-5.408zm0 1.898c4.64 0 4.646 7.02 0 7.02-4.64 0-4.647-7.02 0-7.02z" fill="#fff"/><defs><linearGradient id="paint0_linear" x1="2.351" y1="26.879" x2="28.858" y2="3.938" gradientUnits="userSpaceOnUse"><stop stop-color="#FD5"/><stop offset=".5" stop-color="#FF543E"/><stop offset="1" stop-color="#C837AB"/></linearGradient></defs></svg>