<svg width="33" height="19" fill="none" xmlns="http://www.w3.org/2000/svg"><path d="M27.006 10.802c-.51-.65-.364-.939 0-1.52.007-.006 4.221-5.876 4.655-7.866l.003-.002c.216-.725 0-1.258-1.043-1.258h-3.453c-.88 0-1.284.457-1.502.97 0 0-1.757 4.24-4.244 6.99-.803.794-1.174 1.049-1.612 1.049-.216 0-.551-.255-.551-.98v-6.77c0-.87-.247-1.26-.974-1.26h-5.43c-.55 0-.878.407-.878.785 0 .824 1.243 1.014 1.372 3.335V9.31c0 1.104-.199 1.307-.64 1.307-1.173 0-4.022-4.259-5.71-9.132C6.659.539 6.325.157 5.439.157H1.987C1 .157.8.615.8 1.127c0 .904 1.174 5.401 5.458 11.342 2.856 4.056 6.877 6.253 10.535 6.253 2.199 0 2.467-.488 2.467-1.327 0-3.875-.199-4.241.903-4.241.51 0 1.39.254 3.442 2.21 2.346 2.32 2.732 3.358 4.045 3.358h3.453c.984 0 1.483-.488 1.196-1.45-.657-2.026-5.094-6.191-5.294-6.47z" fill="#4B729F"/></svg>